<?xml version="1.0" encoding="UTF-8" standalone="no"?>
<!DOCTYPE svg PUBLIC "-//W3C//DTD SVG 1.1//EN" "http://www.w3.org/Graphics/SVG/1.1/DTD/svg11.dtd">
<svg version="1.1" xmlns="http://www.w3.org/2000/svg" xmlns:xlink="http://www.w3.org/1999/xlink" preserveAspectRatio="xMidYMid meet" viewBox="0 0 64 64" width="64" height="64"><defs><path d="M34.77 7.62L13.54 7.62L13.54 56.37L50.46 56.37L50.46 20.75L56 20.75L56 62L8 62L8 2L34.77 2L34.77 7.62ZM38.46 17.49L38.46 2L56 17.49L38.46 17.49Z" id="aBoUZcJ2u"></path><path d="M27.42 14.72C27.42 17.48 25.18 19.72 22.42 19.72C19.66 19.72 17.42 17.48 17.42 14.72C17.42 11.96 19.66 9.72 22.42 9.72C25.18 9.72 27.42 11.96 27.42 14.72Z" id="amReN7UL5"></path><path d="M17.42 24L45.84 24L45.84 29.5L17.42 29.5L17.42 24Z" id="bY7PfF9vn"></path><path d="M17.42 35L45.84 35L45.84 40.5L17.42 40.5L17.42 35Z" id="c1Ct5grkH0"></path><path d="M17.42 46L45.84 46L45.84 51.5L17.42 51.5L17.42 46Z" id="bdd0g01jj"></path></defs><g><g><g><use xlink:href="#aBoUZcJ2u" opacity="1" fill="#e7c687" fill-opacity="1"></use></g><g><use xlink:href="#amReN7UL5" opacity="1" fill="#e7c687" fill-opacity="1"></use></g><g><use xlink:href="#bY7PfF9vn" opacity="1" fill="#e7c687" fill-opacity="1"></use></g><g><use xlink:href="#c1Ct5grkH0" opacity="1" fill="#e7c687" fill-opacity="1"></use></g><g><use xlink:href="#bdd0g01jj" opacity="1" fill="#e7c687" fill-opacity="1"></use></g></g></g></svg>